<svg version="1.1" viewBox="0 0 506.3 78.9" xml:space="preserve" xmlns="http://www.w3.org/2000/svg">
<style type="text/css">
	.st0{fill:#F40009;}
</style>
<title>Logo_Hfasader_rød</title>





<g transform="translate(-77,-77.7)"><path class="st0" d="m582 97.1h-0.7c-4.1-0.1-8.2 1.1-11.5 3.5-2.8 2.2-5.4 4.8-7.5 7.7l2.1-9.8h-14.1l-11.9 56.3h14.8l5.7-26.9c1-4.5 2.2-7.8 3.8-10 2.9-3.9 7.3-5.8 13.2-5.8h1.8c0.8 0 1.5 0.1 2.4 0.2l3.2-15.1-1.3-0.1m-53.8 2.4c-3.8-1.8-7.9-2.7-12.1-2.6-7.7-0.1-15.2 2.7-20.9 7.8-6 5.2-10.1 12.7-12.2 22.4-2.2 10.4-1.1 17.9 3.4 22.5s10.3 6.9 17.5 6.9c8.7 0 16-2.7 22-8.2 3.8-3.5 6.3-6.8 7.4-10.2h-15c-1 1.5-2.2 2.8-3.6 3.9-2.3 1.7-5.1 2.7-8 2.6-2.5 0.1-4.9-0.6-6.9-2.1-2.9-2.3-3.8-6.2-2.8-11.9h38.6c0.9-3.7 1.5-7.4 1.9-11.2 0.4-4-0.2-8-1.8-11.6-1.5-3.5-4.1-6.5-7.5-8.3m-23.4 12.7c2.3-2.1 5.4-3.3 8.6-3.2 2.8-0.2 5.4 0.9 7.3 3 1.7 2 2.3 5 1.7 8.9h-22.9c1-3.3 2.9-6.3 5.3-8.7m-49.2 27.2c-2.7 3-6.5 4.7-10.5 4.7-4.2 0-6.9-1.6-8.3-4.7s-1.5-7.3-0.4-12.5c0.9-4.4 2.8-8.6 5.6-12.1 2.5-3.2 6.4-5 10.5-4.9 2.6-0.1 5.1 0.9 6.9 2.7 2.8 3 3.5 7.9 2.1 14.8-0.8 4.4-2.9 8.6-5.9 12m5-40.2c-2.6-1.6-5.5-2.3-8.6-2.2-7.4 0-14.4 3-19.5 8.3-5.6 5.5-9.4 13.1-11.5 22.7-1.8 8.3-1 15.2 2.4 20.5s8.3 8 14.9 8c3.6 0.1 7.2-0.7 10.5-2.3 3.4-1.8 6.4-4.3 8.8-7.3l-1.7 7.8h14.3l16.1-76.1h-15l-5.7 26.9c-0.9-2.6-2.7-4.7-5-6.3m-155.1 37.5c-1.2 5.8-0.1 10.6 3.3 14.3s9.6 5.6 18.4 5.6c8.7 0 15.5-1.8 20.4-5.3 4.7-3.2 8-8.1 9.1-13.7 0.9-4.2 0.2-7.8-2.1-10.6s-6.3-4.9-11.8-6.3c-8.4-1.9-13.2-3.3-14.5-4.1-1.3-0.7-1.9-2.3-1.4-3.7 0.4-1.5 1.4-2.8 2.8-3.5 1.6-1 4-1.5 7.2-1.5 3.9 0 6.5 1 7.7 3 0.7 1.4 0.9 3 0.7 4.5h14.7c0.8-6.9-0.7-11.7-4.5-14.6-3.8-2.8-9.2-4.2-16.3-4.2-7.4 0-13.5 1.9-18.4 5.6s-7.9 8.2-9 13.4c-1 4.4-0.4 7.8 1.8 10.1 2.1 2.3 6.2 4.3 12.2 5.9 8.4 2.1 13.2 3.6 14.4 4.4s1.7 2.4 1.3 3.8c-0.4 1.8-1.6 3.2-3.3 3.9-2.3 0.9-4.7 1.4-7.2 1.3-4.9 0-8.1-1-9.5-3-0.8-1.1-1.1-3-0.9-5.6zm-32.9-15.6c-5.9 0.7-10.4 1.9-13.7 3.6-6 3.1-9.7 8.1-11.2 15-1.1 5.3-0.4 9.5 2.4 12.4 2.7 2.9 6.6 4.4 11.7 4.4 4 0 7.9-0.9 11.4-2.7 3-1.5 5.7-3.4 8.2-5.6-0.2 1.3-0.3 2.4-0.3 3.4 0 1.1 0.1 2.2 0.3 3.2h13.2s2.3-12.5 2.7-14.3l5.5-25.8c1.4-6.8 0-11.4-4.2-13.9-4.3-2.4-9.5-3.7-15.7-3.7-9.5 0-16.7 2.5-21.7 7.4-3.2 3.4-5.5 7.6-6.7 12.2h14.2c0.7-1.9 1.7-3.7 3.1-5.2 1.8-1.7 4.5-2.6 8-2.6 3.1 0 5.4 0.4 6.8 1.3s1.9 2.5 1.4 4.8c-0.4 1.9-1.8 3.3-4 4.2-2 0.7-4.1 1.1-6.2 1.3zm11.4 11.7c-1.2 4.9-3.3 8.3-6.4 10.2-2.8 1.8-6 2.7-9.4 2.8-1.7 0.1-3.4-0.5-4.7-1.7-1.2-1.1-1.5-2.9-0.9-5.4 0.5-2.7 2.2-5 4.7-6.3 2.3-1 4.7-1.7 7.1-2l3.4-0.6c1.4-0.2 2.8-0.6 4.1-1 1.1-0.4 2.1-0.9 3.1-1.4zm-29.3-55c-0.7-0.1-1.6-0.1-2.5-0.1-8.2 0-13.7 1.7-16.5 5.1-2.5 2.3-4.4 6.4-5.7 12.5l-0.8 3.6h-8.1l-2.2 10.4h8.2l-9.6 45.4h14.7l9.6-45.4h9.7l2.2-10.4h-9.7c0.4-2.1 0.8-3.7 1-4.8 0.2-1.2 0.8-2.2 1.7-3 1.2-1 2.8-1.5 4.3-1.3 1.9 0.1 3.3 0.1 4.1 0.2l2.6-12c-1.3-0.1-2.3-0.1-3-0.2"/><path class="st0" d="m386.3 121.1c-5.9 0.7-10.4 1.9-13.7 3.6-6 3.1-9.7 8.1-11.2 15-1.1 5.3-0.4 9.5 2.4 12.4s6.6 4.4 11.7 4.4c4 0 7.9-0.9 11.4-2.7 3-1.5 5.7-3.4 8.2-5.6-0.2 1.3-0.3 2.4-0.3 3.4 0 1.1 0.1 2.1 0.3 3.2h13.2s2.3-12.5 2.7-14.3l5.5-25.8c1.4-6.8 0-11.4-4.2-13.8s-9.5-3.7-15.7-3.7c-9.5 0-16.7 2.5-21.7 7.4-3.2 3.4-5.5 7.6-6.7 12.2h14.2c0.7-1.9 1.7-3.7 3.1-5.2 1.8-1.7 4.5-2.6 8-2.6 3.1 0 5.4 0.4 6.8 1.3s1.9 2.5 1.4 4.8c-0.4 1.9-1.8 3.3-4 4.2-2 0.7-4.1 1.1-6.2 1.3zm11.5 11.7c-1.2 4.9-3.3 8.3-6.4 10.2-2.8 1.8-6 2.7-9.4 2.8-1.7 0.1-3.4-0.5-4.7-1.7-1.2-1.1-1.5-2.9-0.9-5.5 0.5-2.7 2.2-5 4.7-6.2 2.3-1 4.7-1.7 7.1-2l3.4-0.6c1.4-0.2 2.8-0.6 4.1-1 1.1-0.4 2.1-0.9 3.1-1.4z"/><polygon class="st0" points="139.8 154.7 146 123.1 120.9 123.1 114.7 154.7"/><polyline class="st0" points="173.7 78 158.6 154.7 192.6 154.7 192.6 78"/><polyline class="st0" points="129.8 78 124.3 105.9 149.4 105.9 154.9 78"/><polyline class="st0" points="77 78 77 154.7 95.9 154.7 111 78"/></g>
</svg>
